<?xml version="1.0" standalone="no"?>
<!DOCTYPE svg PUBLIC "-//W3C//DTD SVG 20010904//EN"
 "http://www.w3.org/TR/2001/REC-SVG-20010904/DTD/svg10.dtd">
<svg version="1.0" xmlns="http://www.w3.org/2000/svg"
 width="1254.000000pt" height="1254.000000pt" viewBox="0 0 1254.000000 1254.000000"
 preserveAspectRatio="xMidYMid meet">

<g transform="translate(0.000000,1254.000000) scale(0.100000,-0.100000)"
fill="#000000" stroke="none">
<path d="M6205 10323 c-456 -15 -950 -114 -1300 -260 -519 -217 -936 -587
-1155 -1023 -225 -449 -279 -1016 -144 -1535 121 -470 408 -853 859 -1148 366
-239 826 -423 1585 -632 484 -134 632 -177 755 -217 605 -202 838 -408 838
-743 0 -387 -319 -627 -938 -706 -128 -16 -507 -17 -650 -1 -552 62 -1016 226
-1485 525 -113 72 -325 230 -430 321 -70 60 -76 64 -91 48 -9 -9 -76 -96 -150
-192 -73 -96 -252 -330 -397 -520 l-265 -345 99 -94 c316 -300 647 -532 1034
-726 478 -239 979 -378 1555 -431 222 -20 676 -15 885 10 745 90 1355 347
1774 746 324 309 526 690 611 1155 22 120 32 488 16 621 -71 606 -365 1064
-898 1400 -129 82 -375 203 -568 279 -240 96 -507 182 -1065 345 -701 205
-989 310 -1205 440 -112 67 -237 190 -283 276 -129 247 -54 529 188 710 96 71
293 146 465 178 226 41 578 46 813 11 317 -46 613 -145 877 -292 176 -98 296
-184 560 -406 l34 -28 188 233 c104 128 256 316 338 418 82 102 200 246 262
322 62 75 113 141 113 146 0 15 -257 256 -369 347 -464 376 -1052 629 -1671
719 -232 34 -582 56 -785 49z"/>
</g>
</svg>
